# Blender v2.76 (sub 0) OBJ File: ''
# www.blender.org
mtllib hand_low.mtl
o handl
v 0.297603 1.229820 0.606981
v -0.021584 1.306904 0.675135
v -0.271176 1.295715 0.625426
v 1.318370 -0.208832 0.519232
v 0.801727 0.159872 0.186726
v 1.293018 -0.291462 0.238292
v 1.524342 0.051480 0.376299
v 1.158493 0.595652 0.533695
v 0.467678 0.590478 0.790211
v 0.423878 1.011460 0.786895
v 0.844082 0.289378 0.609764
v -0.131115 0.539900 0.767629
v -0.243334 0.358469 0.655284
v -0.044089 0.357924 0.370104
v 0.372687 0.129676 0.297838
v 0.568167 0.113935 0.198975
v 0.453393 0.227858 0.518793
v 0.467678 0.590478 0.790211
v 0.467678 0.590478 0.790211
v -0.370746 0.637298 0.922942
v -0.030889 0.796938 0.840107
v -0.370746 0.637298 0.922942
v -0.539359 0.807925 0.908587
v -0.481727 0.456599 0.778150
v -0.370746 0.637298 0.922942
v -0.771639 0.793302 0.656250
v -0.241713 0.922829 -0.047775
v 0.975522 0.454215 0.083749
v 0.721469 1.064581 0.649637
v -0.074000 0.380480 -0.323462
v -0.436162 0.470188 -0.151075
v -0.605757 0.561095 -0.034137
v -0.763242 0.018608 0.457848
v -0.615703 0.305442 0.538252
v -0.686286 0.131581 0.527480
v -0.184093 -0.141428 0.195172
v 0.016828 -0.204852 0.098437
v -0.056374 0.120927 0.211826
v 0.603691 -0.103688 -0.038360
v -1.068174 0.335194 0.354276
v -0.177002 -0.208622 -0.395819
v 0.061752 -0.296908 -0.060970
v 0.270281 -0.183213 0.032085
v -0.120510 -0.310273 -0.032725
v -0.506311 0.052498 0.381157
v -0.663221 -0.011357 0.144435
v -0.501422 -0.456429 0.105518
v -0.447971 -0.201144 0.081758
v -0.989634 0.114927 0.470307
v -1.032726 -0.258440 0.235506
v -0.177002 -0.208622 -0.395819
v -0.120510 -0.310273 -0.032725
v -0.031873 -0.323864 -0.235375
v -0.649463 0.086049 -0.045798
v -0.537260 -0.087205 -0.011789
v -0.559873 0.006489 0.132258
v -0.122991 0.070629 -0.421961
v 0.242591 -0.634841 -0.189509
v 0.242591 -0.634841 -0.189509
v 0.256210 -0.354940 -0.103513
v 0.106322 -0.352149 -0.279392
v 0.258530 -1.151312 -0.578557
v 0.187904 -0.479908 -0.538292
v 0.518256 -1.153357 -0.661134
v 0.258530 -1.151312 -0.578557
v -0.313483 -0.509301 0.117055
v -0.159774 -0.852283 0.027845
v -0.258290 -0.286118 0.065586
v -0.608862 -0.469194 0.001479
v -0.560515 -0.097029 -0.226747
v -0.089906 -0.596846 -0.219940
v -0.541578 -1.205640 -0.196972
v -0.551979 -0.780585 0.128535
v -0.405242 -1.261227 -0.030390
v -0.543595 -1.209691 0.027619
v -0.595187 -1.243250 -0.077807
v -1.021298 -0.419318 0.742249
v -0.828601 -0.412442 0.722485
v -0.799851 -0.189916 0.624020
v -1.163586 -0.561834 0.550881
v -0.700600 -0.557434 0.597453
v -1.021298 -0.419318 0.742249
v -0.861075 -0.804543 0.674468
v -1.101366 -0.755704 0.728845
v -1.101366 -0.755704 0.728845
v -0.903785 -0.797109 0.727272
v -1.039796 -0.830684 0.572863
v -0.592559 -0.024556 0.320158
v -0.850915 -0.654203 0.363128
v -0.663221 -0.011357 0.144435
v -0.159774 -0.852283 0.027845
v -0.551979 -0.780585 0.128535
v -0.551979 -0.780585 0.128535
v -0.447971 -0.201144 0.081758
v 0.172181 -1.008500 -0.809436
v 0.605737 -0.599313 -0.216505
v -0.788267 0.033750 0.024343
v -0.639467 -0.269739 0.412186
v 0.154130 0.096059 -0.430493
v 0.314818 0.043738 0.148224
v 0.760126 0.428663 -0.108260
v -0.656133 0.962226 0.284122
v -0.370746 0.637298 0.922942
v -0.014469 1.171265 0.762706
v 0.453393 0.227858 0.518793
v 1.318370 -0.208832 0.519232
v 0.721595 0.148403 0.097016
v 0.492286 0.001579 0.097209
v -0.137084 1.177615 0.812491
v -0.307962 0.166530 0.308901
vn -0.327800 0.940400 0.090100
vn 0.294500 0.955600 -0.002800
vn -0.097200 0.660500 -0.744500
vn -0.608600 0.697200 -0.378800
vn -0.073300 -0.558600 0.826100
vn -0.133300 -0.286800 0.948700
vn -0.083900 -0.460000 0.883900
vn 0.249400 0.376200 0.892300
vn 0.018200 -0.290700 0.956600
vn 0.091600 -0.134200 0.986700
vn 0.196000 0.310300 0.930200
vn 0.257600 -0.616500 0.744000
vn 0.074400 -0.742400 0.665800
vn 0.039800 -0.881400 0.470600
vn 0.281900 -0.841200 -0.461300
vn 0.191900 -0.695300 -0.692600
vn 0.295000 -0.739800 0.604700
vn 0.101600 -0.291000 0.951300
vn 0.558700 0.203600 -0.804000
vn -0.107400 0.384300 -0.916900
vn -0.392100 -0.347500 -0.851700
vn -0.592100 -0.217900 -0.775800
vn -0.966700 0.255500 0.012400
vn 0.065200 0.065800 0.995700
vn 0.178600 -0.019000 0.983700
vn 0.018800 0.496100 0.868000
vn -0.007500 -0.270800 0.962600
vn -0.892100 0.307400 0.331200
vn 0.623200 -0.701100 0.346500
vn -0.502500 0.138600 0.853300
vn -0.174500 -0.103500 0.979200
vn -0.524300 0.185100 0.831100
vn -0.858500 0.364200 0.360800
vn 0.091300 -0.529800 0.843200
vn 0.071400 -0.273900 0.959100
vn 0.169600 -0.512400 0.841800
vn 0.125400 0.975600 0.179900
vn 0.257900 -0.629000 0.733400
vn 0.011700 -0.526700 0.850000
vn -0.608500 0.102900 -0.786800
vn -0.640400 -0.549500 0.536700
vn -0.434200 0.232100 -0.870400
vn 0.939100 -0.260000 0.224800
vn 0.016000 -0.744100 0.667900
vn 0.731600 -0.633400 -0.252100
vn 0.605200 -0.739800 -0.294000
vn 0.858600 -0.505600 0.084400
vn 0.213600 0.126500 -0.968700
vn -0.647800 0.284700 -0.706600
vn 0.815100 0.050600 -0.577000
vn 0.125200 -0.424800 0.896600
vn 0.043200 -0.779300 0.625100
vn 0.157500 -0.694500 0.702000
vn 0.439200 -0.567100 0.696800
vn -0.401600 -0.557900 0.726200
vn -0.993600 -0.020700 0.111100
vn -0.016800 -0.351000 0.936200
vn 0.341600 -0.019000 0.939600
vn 0.472900 0.383400 0.793300
vn -0.736500 -0.370100 0.566200
vn -0.984500 -0.125900 -0.122100
vn 0.203400 -0.658700 -0.724400
vn -0.259700 -0.895400 -0.361600
vn 0.610700 -0.255100 0.749700
vn 0.357700 -0.423700 0.832100
vn -0.825500 -0.379400 -0.417700
vn -0.612100 -0.291800 -0.734900
vn -0.966100 -0.242200 0.089400
vn -0.645700 -0.673300 -0.360200
vn 0.299600 -0.312600 0.901400
vn -0.627200 -0.116800 0.770000
vn -0.698100 -0.580000 0.419800
vn 0.604800 0.735400 0.305400
vn 0.873700 0.403000 0.272300
vn 0.592500 -0.777900 0.209200
vn 0.780800 -0.375800 0.499000
vn 0.106800 -0.094400 0.989800
vn 0.259600 -0.005000 0.965700
vn 0.530700 -0.047300 0.846200
vn 0.692000 -0.234100 -0.682900
vn -0.268200 -0.454000 -0.849600
vn -0.994500 0.103900 -0.007300
vn -0.734900 -0.027100 -0.677700
vn -0.699000 -0.655900 -0.284800
vn 0.410200 -0.836200 -0.363800
vn 0.263800 -0.663500 0.700100
vn -0.860800 -0.508200 0.026300
vn 0.884600 -0.343400 0.315400
vn 0.520400 -0.742100 0.422300
vn -0.246500 0.084100 0.965500
vn 0.113400 -0.605100 0.788000
vn 0.105700 -0.056500 0.992800
vn -0.310700 0.192700 0.930800
vn 0.387300 -0.059500 0.920000
vn -0.453400 -0.849500 -0.269800
vn 0.843900 0.267600 -0.465000
vn -0.967400 0.009900 -0.253100
vn -0.149800 0.017200 0.988600
vn -0.610500 0.009700 0.791900
vn -0.444200 0.156700 -0.882100
vn -0.504100 -0.086800 -0.859200
vn -0.333300 0.336600 0.880600
vn 0.653100 -0.655400 0.379300
vn 0.097300 -0.657700 0.746900
vn 0.247900 -0.868900 0.428400
vn 0.115100 -0.198400 0.973300
vn 0.701600 -0.699400 0.136400
vn 0.416100 -0.371800 0.829800
vn 0.980300 0.192800 -0.043400
vn -0.502700 -0.481300 0.718100
usemtl skin.001
s 1
f 3//1 1//2 27//3 102//4
f 18//5 105//6 17//7
f 104//8 19//9 9//10 10//11
f 9//10 19//9 18//5
f 18//5 19//9 12//12 14//13
f 4//14 17//7 5//15 6//16
f 13//17 12//12 20//18
f 101//19 30//20 27//3
f 97//21 50//22 40//23
f 103//24 20//18 21//25 109//26
f 22//27 24//28 35//29
f 49//30 35//29 24//28
f 24//28 25//31 23//32 26//33
f 42//34 58//35 43//36
f 3//1 2//37 1//2
f 14//13 110//38 38//39
f 30//20 57//40 41//41
f 41//41 31//42 27//3 30//20
f 96//43 58//35 65//44 64//45
f 107//46 39//47 99//48 101//19
f 32//49 102//4 27//3
f 28//50 5//15 107//46
f 43//36 58//35 96//43 39//47
f 36//51 44//52 37//53
f 45//54 46//55 47//56 48//57
f 33//58 49//30 79//59
f 85//60 80//61 89//62 87//63
f 52//64 51//65 60//66 44//52
f 54//67 55//68 56//69
f 57//40 51//65 41//41
f 44//52 68//70 52//64
f 65//44 58//35 59//71 62//72
f 60//66 59//71 42//34
f 54//67 97//21 32//49
f 28//50 29//73 8//74
f 74//75 91//76 73//77
f 68//70 66//78 67//79
f 103//24 109//26 23//32
f 71//80 52//64 67//79 91//76
f 71//80 72//81 69//82 70//83
f 72//81 91//76 74//75 76//84
f 57//40 30//20 99//48
f 50//22 90//85 89//62
f 39//47 108//86 43//36
f 51//65 61//87 60//66
f 89//62 81//88 83//89 87//63
f 84//90 85//60 86//91
f 72//81 71//80 91//76
f 82//92 77//93 84//90
f 83//89 86//91 87//63
f 87//63 86//91 85//60
f 82//92 78//94 77//93
f 90//85 88//95 89//62
f 53//96 51//65 52//64
f 88//95 81//88 89//62
f 77//93 80//61 85//60 84//90
f 47//56 94//97 93//98
f 68//70 67//79 52//64
f 50//22 89//62 80//61
f 94//97 69//82 92//99 93//98
f 67//79 66//78 93//98 73//77
f 66//78 47//56 93//98
f 62//72 59//71 63//100 95//101
f 53//96 71//80 70//83
f 73//77 93//98 92//99
f 63//100 61//87 99//48
f 61//87 51//65 57//40
f 31//42 41//41 70//83 54//67
f 50//22 80//61 40//23
f 36//51 37//53 38//39
f 98//102 45//54 34//103 33//58
f 36//51 68//70 44//52
f 97//21 90//85 50//22
f 100//104 105//6 38//39 37//53
f 37//53 43//36 100//104
f 27//3 1//2 29//73 101//19
f 96//43 63//100 99//48 39//47
f 28//50 107//46 101//19
f 2//37 10//11 1//2
f 35//29 33//58 34//103
f 49//30 33//58 35//29
f 22//27 35//29 34//103
f 19//9 21//25 12//12
f 45//54 48//57 110//38
f 17//7 16//105 5//15
f 8//74 29//73 9//10 11//106
f 10//11 29//73 1//2
f 32//49 97//21 102//4
f 10//11 2//37 104//8
f 55//68 69//82 94//97
f 109//26 104//8 2//37
f 15//107 16//105 17//7
f 106//108 7//109 8//74 11//106
f 22//27 34//103 13//17 20//18
f 17//7 11//106 9//10 18//5
f 31//42 32//49 27//3
f 12//12 13//17 14//13
f 16//105 15//107 100//104 108//86
f 105//6 18//5 14//13 38//39
f 20//18 12//12 21//25
f 25//31 24//28 22//27
f 7//109 6//16 5//15 8//74
f 25//31 22//27 20//18 103//24
f 70//83 55//68 54//67
f 17//7 4//14 106//108 11//106
f 107//46 16//105 108//86
f 15//107 105//6 100//104
f 33//58 79//59 98//102
f 26//33 40//23 49//30 24//28
f 48//57 36//51 38//39 110//38
f 41//41 53//96 70//83
f 61//87 57//40 99//48
f 109//26 2//37 3//1
f 37//53 44//52 42//34
f 48//57 47//56 66//78
f 98//102 88//95 46//55
f 56//69 55//68 94//97 46//55
f 54//67 56//69 97//21
f 41//41 51//65 53//96
f 102//4 26//33 23//32 3//1
f 59//71 61//87 63//100
f 76//84 75//110 92//99 72//81
f 69//82 72//81 92//99
f 109//26 3//1 23//32
f 91//76 67//79 73//77
f 74//75 73//77 75//110
f 69//82 55//68 70//83
f 76//84 74//75 75//110
f 81//88 78//94 82//92
f 92//99 75//110 73//77
f 78//94 81//88 98//102 79//59
f 53//96 52//64 71//80
f 82//92 84//90 86//91 83//89
f 98//102 81//88 88//95
f 42//34 44//52 60//66
f 81//88 82//92 83//89
f 10//11 9//10 29//73
f 59//71 60//66 61//87
f 62//72 95//101 64//45 65//44
f 37//53 42//34 43//36
f 97//21 56//69 90//85
f 56//69 46//55 88//95 90//85
f 58//35 42//34 59//71
f 46//55 94//97 47//56
f 48//57 66//78 68//70 36//51
f 110//38 14//13 13//17
f 79//59 49//30 77//93
f 13//17 34//103 45//54 110//38
f 54//67 32//49 31//42
f 28//50 8//74 5//15
f 98//102 46//55 45//54
f 100//104 43//36 108//86
f 28//50 101//19 29//73
f 107//46 5//15 16//105
f 77//93 78//94 79//59
f 15//107 17//7 105//6
f 23//32 25//31 103//24
f 104//8 109//26 21//25
f 7//109 106//108 4//14 6//16
f 21//25 19//9 104//8
f 30//20 101//19 99//48
f 77//93 49//30 40//23 80//61
f 26//33 102//4 97//21 40//23
f 64//45 95//101 63//100 96//43
f 108//86 39//47 107//46
