# Blender v2.76 (sub 0) OBJ File: ''
# www.blender.org
mtllib hand.mtl
o handl
v 0.297603 1.229820 0.606981
v 0.120969 1.295973 0.639640
v -0.021584 1.306904 0.675135
v 0.120969 1.295973 0.639640
v -0.271176 1.295715 0.625426
v -0.165983 1.255057 0.731439
v -0.354095 1.143291 0.793231
v -0.165983 1.255057 0.731439
v 1.249222 -0.274245 0.410018
v 1.318370 -0.208832 0.519232
v 1.069381 0.012687 0.564871
v 1.318370 -0.208832 0.519232
v 0.978028 -0.068763 0.438408
v 0.735398 0.147480 0.430275
v 0.801727 0.159872 0.186726
v 1.008364 -0.049119 0.228828
v 1.293018 -0.291462 0.238292
v 1.370685 -0.180617 0.080205
v 1.558018 -0.270462 0.183112
v 1.509437 -0.337713 0.283037
v 1.635204 -0.249838 0.440681
v 1.670745 -0.196973 0.345177
v 1.524342 0.051480 0.376299
v 1.464260 -0.036956 0.556785
v 0.879800 0.290704 0.080537
v 1.158493 0.595652 0.533695
v 1.321555 0.287857 0.445684
v 1.123606 0.056421 0.093866
v 0.303958 0.683879 0.745011
v 0.467678 0.590478 0.790211
v 0.642319 0.909771 0.774280
v 0.423878 1.011460 0.786895
v 1.061313 0.465768 0.663503
v 0.844082 0.289378 0.609764
v 1.069381 0.012687 0.564871
v 1.253788 0.212223 0.588259
v 0.844082 0.289378 0.609764
v 1.069381 0.012687 0.564871
v 0.293580 0.325511 0.571510
v -0.131115 0.539900 0.767629
v -0.243334 0.358469 0.655284
v -0.044089 0.357924 0.370104
v 0.372687 0.129676 0.297838
v 0.568167 0.113935 0.198975
v 0.453393 0.227858 0.518793
v 0.661253 0.479283 0.716879
v 0.467678 0.590478 0.790211
v 0.293580 0.325511 0.571510
v 0.467678 0.590478 0.790211
v 0.293580 0.325511 0.571510
v 0.467678 0.590478 0.790211
v -0.370746 0.637298 0.922942
v -0.030889 0.796938 0.840107
v -0.248311 0.905548 0.961234
v -0.481727 0.456599 0.778150
v -0.370746 0.637298 0.922942
v -0.481727 0.456599 0.778150
v -0.599131 0.980261 0.757442
v -0.539359 0.807925 0.908587
v -0.539359 0.807925 0.908587
v -0.811522 0.423661 0.551729
v -0.913669 0.264236 0.496774
v -0.481727 0.456599 0.778150
v -0.666057 0.639605 0.776951
v -0.370746 0.637298 0.922942
v -0.088465 1.186687 0.137762
v -0.294929 1.223167 0.277035
v -0.582796 1.103719 0.605640
v -0.779099 0.936813 0.460633
v -0.771639 0.793302 0.656250
v 0.083316 1.130432 0.056489
v -0.006853 0.860280 -0.148487
v -0.241713 0.922829 -0.047775
v 0.975522 0.454215 0.083749
v 0.861457 0.611222 -0.023567
v 0.721469 1.064581 0.649637
v 0.964586 0.852576 0.587629
v -0.074000 0.380480 -0.323462
v -0.271931 0.417752 -0.251422
v -0.436162 0.470188 -0.151075
v -0.605757 0.561095 -0.034137
v -0.459964 0.950877 0.098937
v -0.763242 0.018608 0.457848
v -0.686286 0.131581 0.527480
v -0.615703 0.305442 0.538252
v -0.686286 0.131581 0.527480
v -0.184093 -0.141428 0.195172
v 0.016828 -0.204852 0.098437
v 0.127787 0.092854 0.174807
v -0.056374 0.120927 0.211826
v 0.603691 -0.103688 -0.038360
v 0.667854 -0.021294 -0.208030
v 0.720946 0.140437 -0.133292
v 0.651433 0.035122 0.008766
v -1.084254 0.383430 0.203020
v -1.068174 0.335194 0.354276
v -0.947019 0.560769 0.464961
v -0.935877 0.651967 0.304482
v -0.177002 -0.208622 -0.395819
v -0.551489 0.216520 -0.191763
v 0.061752 -0.296908 -0.060970
v 0.256210 -0.354940 -0.103513
v 0.270281 -0.183213 0.032085
v -0.120510 -0.310273 -0.032725
v -0.506311 0.052498 0.381157
v -0.663221 -0.011357 0.144435
v -0.501422 -0.456429 0.105518
v -0.447971 -0.201144 0.081758
v -0.989634 0.114927 0.470307
v -0.913669 0.264236 0.496774
v -0.989634 0.114927 0.470307
v -1.013163 -0.141350 0.603288
v -1.032726 -0.258440 0.235506
v -1.111891 0.115008 0.362837
v -0.177002 -0.208622 -0.395819
v -0.031873 -0.323864 -0.235375
v -0.120510 -0.310273 -0.032725
v -0.031873 -0.323864 -0.235375
v -0.649463 0.086049 -0.045798
v -0.537260 -0.087205 -0.011789
v -0.559873 0.006489 0.132258
v -0.122991 0.070629 -0.421961
v 0.438208 -0.313019 -0.066652
v 0.242591 -0.634841 -0.189509
v 0.425405 -0.625139 -0.163873
v 0.104321 -0.585335 -0.342724
v 0.242591 -0.634841 -0.189509
v 0.256210 -0.354940 -0.103513
v 0.106322 -0.352149 -0.279392
v 0.253314 -0.911780 -0.339467
v 0.242591 -0.634841 -0.189509
v 0.253314 -0.911780 -0.339467
v 0.126688 -0.815916 -0.469916
v 0.166494 -1.091169 -0.653958
v 0.258530 -1.151312 -0.578557
v 0.153091 -0.727975 -0.662497
v 0.187904 -0.479908 -0.538292
v 0.654911 -0.500312 -0.443257
v 0.610769 -0.845137 -0.596141
v 0.588310 -0.930130 -0.411576
v 0.518256 -1.153357 -0.661134
v 0.537085 -1.074962 -0.783704
v 0.258530 -1.151312 -0.578557
v 0.253314 -0.911780 -0.339467
v 0.258530 -1.151312 -0.578557
v 0.387096 -1.176389 -0.593250
v 0.387096 -1.176389 -0.593250
v 0.366901 -1.202090 -0.745901
v 0.261069 -1.128704 -0.856975
v 0.446815 -1.154838 -0.836902
v 0.436435 -1.175749 -0.789008
v 0.289623 -1.191742 -0.743215
v 0.260149 -1.180566 -0.781832
v -0.313483 -0.509301 0.117055
v -0.358683 -0.791993 0.129931
v -0.159774 -0.852283 0.027845
v -0.258290 -0.286118 0.065586
v -0.612443 -0.483235 -0.199193
v -0.608862 -0.469194 0.001479
v -0.560515 -0.097029 -0.226747
v -0.089906 -0.596846 -0.219940
v -0.411074 -1.248755 -0.222638
v -0.541578 -1.205640 -0.196972
v -0.551979 -0.780585 0.128535
v -0.358683 -0.791993 0.129931
v -0.543595 -1.209691 0.027619
v -0.561204 -1.117652 0.096059
v -0.561204 -1.117652 0.096059
v -0.405242 -1.261227 -0.030390
v -0.421821 -1.297559 -0.101982
v -0.396967 -1.112564 0.093884
v -0.452238 -1.223796 0.025383
v -0.599378 -1.217246 -0.020659
v -0.543595 -1.209691 0.027619
v -0.561204 -1.117652 0.096059
v -0.667046 -1.124598 -0.005488
v -0.543595 -1.209691 0.027619
v -0.561204 -1.117652 0.096059
v -0.595187 -1.243250 -0.077807
v -0.555481 -1.271659 -0.117294
v -1.021298 -0.419318 0.742249
v -0.828601 -0.412442 0.722485
v -0.799851 -0.189916 0.624020
v -1.038767 -0.623865 0.443524
v -1.163586 -0.561834 0.550881
v -0.794918 -0.751964 0.672453
v -0.700600 -0.557434 0.597453
v -1.021298 -0.419318 0.742249
v -1.039796 -0.830684 0.572863
v -1.106372 -0.793031 0.668526
v -0.883674 -0.835341 0.640782
v -0.828399 -0.819664 0.580584
v -0.861075 -0.804543 0.674468
v -0.986977 -0.700839 0.774540
v -0.986977 -0.700839 0.774540
v -1.101366 -0.755704 0.728845
v -1.101366 -0.755704 0.728845
v -1.005203 -0.808879 0.726079
v -1.101366 -0.755704 0.728845
v -1.005203 -0.808879 0.726079
v -0.975811 -0.845003 0.661483
v -0.903785 -0.797109 0.727272
v -0.970629 -0.793254 0.738442
v -1.005203 -0.808879 0.726079
v -1.013663 -0.819844 0.706637
v -1.039796 -0.830684 0.572863
v -0.900931 -0.853267 0.547817
v -0.975811 -0.845003 0.661483
v -0.779668 -0.630078 0.447384
v -1.101366 -0.755704 0.728845
v -1.169937 -0.494770 0.632875
v -0.592559 -0.024556 0.320158
v -0.850915 -0.654203 0.363128
v -0.663221 -0.011357 0.144435
v -0.476585 -1.299901 -0.131067
v -0.159774 -0.852283 0.027845
v -0.555481 -1.271659 -0.117294
v -0.118992 -0.587175 0.006334
v -0.501422 -0.456429 0.105518
v -0.551979 -0.780585 0.128535
v -0.551979 -0.780585 0.128535
v -0.447971 -0.201144 0.081758
v 0.172181 -1.008500 -0.809436
v 0.421558 -0.960085 -0.342317
v 0.253314 -0.911780 -0.339467
v 0.605737 -0.599313 -0.216505
v 0.666370 -0.197895 -0.294661
v 0.594833 -0.271139 -0.108920
v -0.788267 0.033750 0.024343
v -0.639467 -0.269739 0.412186
v -0.809046 0.671002 0.138990
v 0.190060 0.377601 -0.359863
v 0.154130 0.096059 -0.430493
v 0.314818 0.043738 0.148224
v -0.428398 0.213110 0.429713
v 0.786427 0.250414 -0.020754
v 0.760126 0.428663 -0.108260
v -0.471887 1.191550 0.462257
v -0.656133 0.962226 0.284122
v -0.370746 0.637298 0.922942
v -0.014469 1.171265 0.762706
v 0.293580 0.325511 0.571510
v 0.453393 0.227858 0.518793
v 1.318370 -0.208832 0.519232
v 0.661253 0.479283 0.716879
v 0.868618 0.718973 0.738947
v 0.453271 1.196429 0.642054
v 0.721595 0.148403 0.097016
v 0.492286 0.001579 0.097209
v 1.550551 -0.339611 0.419930
v -0.354095 1.143291 0.793231
v -0.137084 1.177615 0.812491
v 1.249222 -0.274245 0.410018
v -0.307962 0.166530 0.308901
v 0.440532 -0.168995 0.008852
v 0.188821 -0.214135 -0.463736
v -0.632648 -0.788205 0.000931
v 1.518312 -0.363331 0.361603
vn 0.226800 0.957500 0.178300
vn 0.051000 0.803400 0.593200
vn 0.010000 0.785800 0.618400
vn 0.035100 0.162700 0.986000
vn -0.297300 0.947200 0.120000
vn -0.328000 0.458600 0.825900
vn -0.831000 0.521700 0.192900
vn -0.003100 0.697000 0.717000
vn 0.231700 -0.590900 0.772800
vn 0.107400 -0.273900 0.955700
vn 0.000000 0.000000 1.000000
vn -0.226400 -0.339100 0.913100
vn -0.575800 -0.801500 0.161300
vn -0.348900 -0.927700 0.132500
vn -0.065200 -0.902200 -0.426300
vn -0.576100 -0.670800 -0.467100
vn -0.378700 -0.834600 -0.400100
vn 0.137000 -0.161000 -0.977400
vn 0.525200 -0.503400 -0.686100
vn 0.055100 -0.992500 -0.109300
vn 0.585300 -0.430200 0.687300
vn 0.995300 -0.093200 0.026400
vn 0.787800 0.604300 -0.119000
vn 0.474400 0.101300 0.874400
vn 0.589900 -0.269500 -0.761200
vn 0.904900 0.409900 0.114600
vn 0.800700 0.595600 -0.064000
vn 0.058300 0.023600 -0.998000
vn 0.162800 0.213400 0.963300
vn 0.317400 -0.041000 0.947400
vn 0.242300 0.244600 0.938800
vn 0.101700 0.342800 0.933900
vn 0.413900 0.016400 0.910200
vn 0.033800 -0.133600 0.990400
vn 0.002700 -0.093400 0.995600
vn 0.415100 0.108500 0.903300
vn -0.073500 -0.214300 0.974000
vn -0.228800 -0.405100 0.885200
vn 0.005100 -0.380500 0.924700
vn 0.141200 -0.622700 0.769600
vn 0.116100 -0.828300 0.548100
vn -0.004500 -0.773600 0.633600
vn -0.046400 -0.887200 0.458900
vn 0.186500 -0.910400 0.369300
vn -0.436400 -0.621800 0.650300
vn -0.760800 -0.054400 0.646700
vn 0.428400 0.540800 0.723800
vn -0.035400 -0.314200 0.948700
vn -0.035300 -0.314200 0.948700
vn 0.407600 0.451900 0.793500
vn 0.669300 -0.263500 0.694700
vn 0.156200 -0.268200 0.950600
vn 0.334100 -0.074400 0.939500
vn 0.016700 0.154300 0.987900
vn -0.471000 0.446400 0.760800
vn 0.472400 -0.705100 0.528800
vn 0.609000 -0.733200 0.302600
vn -0.597000 0.516500 0.613800
vn -0.310700 -0.046700 0.949300
vn -0.015600 0.186300 0.982400
vn -0.613900 -0.143100 0.776300
vn -0.802900 -0.191700 0.564400
vn -0.423200 -0.363900 0.829700
vn -0.617800 -0.145000 0.772900
vn -0.215900 -0.196400 0.956400
vn -0.047900 0.849100 -0.525900
vn -0.234400 0.871800 -0.430100
vn -0.613300 0.724400 0.314500
vn -0.791300 0.611400 -0.001700
vn -0.812800 0.250000 0.526100
vn 0.177500 0.766100 -0.617700
vn -0.006300 0.482400 -0.875900
vn -0.310700 0.521900 -0.794400
vn 0.817200 0.198100 -0.541200
vn 0.576000 0.460700 -0.675200
vn 0.581200 0.767600 0.270100
vn 0.813700 0.542700 0.208300
vn -0.183700 0.334100 -0.924400
vn -0.370400 0.285700 -0.883800
vn -0.484400 0.296000 -0.823200
vn -0.542800 0.295100 -0.786300
vn -0.451000 0.572900 -0.684400
vn 0.196200 0.125800 0.972400
vn 0.367800 -0.160900 0.915900
vn 0.617200 -0.675300 0.403700
vn -0.067400 -0.228000 0.971300
vn 0.098100 -0.430200 0.897400
vn 0.152000 -0.609700 0.777900
vn 0.035600 -0.632900 0.773400
vn -0.021100 -0.490700 0.871100
vn 0.720400 -0.391500 0.572500
vn 0.890300 -0.027400 -0.454500
vn 0.816500 -0.198100 -0.542200
vn 0.736300 -0.567100 0.369100
vn -0.836700 0.199300 -0.510000
vn -0.917300 0.167300 0.361200
vn -0.842800 0.204100 0.498000
vn -0.840200 0.477200 -0.257500
vn -0.858900 -0.363400 0.360800
vn -0.640700 0.065600 -0.764900
vn 0.029500 -0.897300 0.440400
vn -0.027400 -0.473700 0.880200
vn 0.119700 -0.546300 0.829000
vn 0.130600 -0.944200 -0.302400
vn 0.582600 -0.487500 0.650300
vn -0.290600 -0.450100 0.844300
vn -0.058300 -0.005600 0.998300
vn -0.017200 -0.347500 0.937500
vn -0.009100 0.061400 0.998000
vn -0.891100 0.048400 0.451100
vn -0.500600 0.154300 0.851800
vn -0.324000 0.463000 0.825000
vn -0.574900 -0.267500 -0.773200
vn -0.982400 0.093300 0.162000
vn 0.307700 -0.421100 0.853200
vn -0.164700 -0.893600 0.417400
vn 0.934700 0.239400 -0.262700
vn 0.892400 -0.447600 -0.056900
vn -0.749300 -0.310500 -0.584900
vn -0.986300 -0.163600 -0.019000
vn -0.645700 -0.673300 -0.360200
vn -0.309800 0.088100 -0.946700
vn 0.168600 -0.405200 0.898600
vn -0.095000 -0.388400 0.916500
vn 0.110400 -0.388500 0.914800
vn -0.973400 -0.091200 0.210300
vn -0.908000 0.163800 -0.385700
vn -0.724400 -0.398700 -0.562300
vn -0.779300 -0.570000 -0.260200
vn -0.444900 -0.231700 0.865000
vn -0.961200 -0.192300 0.197500
vn -0.880900 -0.466700 0.079200
vn -0.452000 -0.401200 0.796600
vn -0.591100 0.350100 -0.726600
vn -0.487000 0.332800 -0.807500
vn 0.846400 0.170700 -0.504300
vn 0.843500 0.129900 -0.521200
vn 0.763100 -0.471800 0.441600
vn 0.672400 -0.729300 0.126200
vn 0.739000 -0.029800 -0.673000
vn -0.420000 -0.826900 0.373900
vn -0.332400 -0.700800 0.631200
vn -0.312600 -0.745300 0.588900
vn 0.061600 -0.703600 0.707900
vn 0.090900 -0.994300 -0.055500
vn -0.383600 -0.371000 -0.845700
vn 0.379300 -0.463500 -0.800800
vn 0.302000 -0.939900 -0.159000
vn -0.352400 -0.935200 -0.032600
vn -0.502800 -0.849800 -0.158000
vn 0.243700 0.013600 0.969800
vn 0.141800 0.020100 0.989700
vn 0.264600 0.010300 0.964300
vn 0.270300 -0.310700 0.911200
vn -0.731900 0.022400 -0.681100
vn -0.934600 0.109300 0.338300
vn -0.762500 -0.168400 -0.624600
vn 0.716300 -0.193000 -0.670600
vn 0.408900 -0.515900 -0.752700
vn -0.532000 -0.224900 -0.816300
vn 0.000200 -0.051900 0.998600
vn 0.163100 -0.133200 0.977600
vn -0.409800 -0.911900 0.020800
vn -0.001300 -0.178900 0.983900
vn 0.000000 0.707100 0.707100
vn 0.370800 -0.769600 0.519800
vn 0.473900 -0.821100 0.318100
vn 0.349600 -0.369800 0.860800
vn 0.236800 -0.737800 0.632100
vn -0.604700 -0.724900 0.329700
vn -0.376800 -0.747500 0.547000
vn -0.596300 0.577800 0.557200
vn -0.973800 -0.204000 0.100700
vn -0.096000 -0.756900 0.646400
vn -0.447400 -0.891000 0.076600
vn -0.615300 -0.773900 0.149400
vn -0.144400 -0.848900 -0.508300
vn -0.333200 0.247000 0.909900
vn 0.448800 0.161500 0.878900
vn 0.404100 0.334500 0.851300
vn -0.566300 -0.390900 -0.725500
vn -0.977100 -0.149300 -0.151900
vn 0.764300 -0.346200 0.544000
vn 0.914100 -0.222600 0.338900
vn 0.214600 -0.024900 0.976400
vn -0.634100 -0.752700 -0.176800
vn -0.747600 -0.663800 0.018600
vn 0.269800 -0.923200 0.273700
vn 0.650300 -0.752200 -0.106300
vn 0.519800 -0.578500 0.628600
vn -0.187800 -0.096600 0.977400
vn -0.877500 0.054300 0.476400
vn -0.773900 -0.018800 0.633000
vn 0.029700 -0.311600 0.949700
vn -0.296100 0.111000 0.948700
vn -0.252400 -0.550200 0.796000
vn -0.247400 -0.881300 0.402500
vn 0.113200 -0.980100 0.162800
vn 0.395600 -0.491600 0.775700
vn 0.144900 -0.502900 0.852000
vn -0.050500 -0.639900 0.766800
vn -0.247400 -0.881400 0.402400
vn 0.036800 -0.709600 0.703600
vn 0.093400 -0.924500 -0.369500
vn -0.173300 -0.983900 0.042100
vn 0.809400 -0.444800 -0.383500
vn -0.771000 0.036100 0.635700
vn -0.821300 0.155500 0.548800
vn -0.505400 -0.642900 -0.575400
vn 0.278500 -0.536800 -0.796400
vn 0.191300 -0.827800 -0.527400
vn -0.015000 -0.996200 -0.086000
vn 0.781600 -0.371700 0.500800
vn -0.403500 -0.263000 -0.876400
vn 0.841700 -0.100100 0.530500
vn -0.391100 0.079600 0.916900
vn -0.440300 0.037500 0.897000
vn -0.005800 0.015500 0.999800
vn -0.964700 0.024800 -0.262100
vn -0.629000 0.140200 -0.764600
vn 0.134100 -0.631700 0.763500
vn -0.067900 -0.323100 0.943900
vn 0.741200 -0.290900 0.604900
vn 0.891800 0.112200 -0.438300
vn 0.725900 -0.269800 0.632600
vn -0.376500 -0.317500 -0.870300
vn 0.959900 -0.210400 0.185200
vn -0.567900 0.408500 -0.714600
vn 0.213000 0.329200 -0.919900
vn 0.078800 0.125600 -0.988900
vn 0.080400 -0.670200 0.737800
vn 0.345800 -0.681500 0.644900
vn 0.736900 -0.380300 -0.558900
vn 0.484100 0.125500 -0.865900
vn -0.480700 0.868700 -0.118900
vn -0.594200 0.655200 -0.466400
vn -0.021200 0.070400 0.997300
vn 0.230100 0.347600 0.909000
vn -0.069200 -0.304900 0.949800
vn -0.698100 -0.525400 0.486300
vn 0.045500 -0.134900 0.989800
vn -0.529300 0.146800 0.835600
vn 0.397500 0.097500 0.912400
vn 0.378800 0.891100 0.249800
vn 0.609300 -0.792900 -0.004700
vn 0.299500 -0.639700 0.707800
vn 0.303300 -0.719100 0.625200
vn -0.200200 0.364200 0.909500
vn 0.098000 0.493500 0.864200
vn -0.461900 -0.759600 0.457900
vn 0.262100 -0.637700 0.724300
vn 0.247600 -0.484200 0.839200
vn -0.157600 0.108600 -0.981500
vn -0.974400 0.012600 0.224400
vn 0.047800 -0.996600 0.066400
usemtl skin.001
s 1
f 1//1 2//2 3//3 4//4
f 5//5 6//6 7//7 8//8
f 9//9 10//10 11//11 12//12
f 13//13 14//14 15//15 16//16
f 17//17 18//18 19//19 20//20
f 21//21 22//22 23//23 24//24
f 25//25 26//26 27//27 28//28
f 29//29 30//30 31//31 32//32
f 33//33 34//34 35//35 36//36
f 12//12 11//11 37//37 38//38
f 39//39 40//40 41//41 42//42
f 43//43 44//44 14//14 45//45
f 46//46 37//37 35//35 34//34
f 47//47 48//48 49//49 50//50
f 51//51 50//50 30//30 29//29
f 52//52 40//40 53//53 54//54
f 52//52 55//55 56//56 57//57
f 58//58 59//59 60//60
f 61//61 62//62 63//63 64//64
f 60//60 59//59 65//65
f 66//66 67//67 2//2 1//1
f 68//68 69//69 70//70 58//58
f 71//71 72//72 73//73 66//66
f 74//74 75//75 76//76 77//77
f 78//78 79//79 73//73 72//72
f 79//79 80//80 81//81 82//82 73//73
f 83//83 84//84 85//85 86//86
f 87//87 88//88 89//89 90//90
f 91//91 92//92 93//93 94//94
f 95//95 96//96 97//97 98//98
f 99//99 100//100 80//80 79//79
f 88//88 101//101 102//102 103//103
f 87//87 104//104 88//88
f 105//105 106//106 107//107 108//108
f 109//109 110//110 111//111 112//112
f 95//95 113//113 114//114 96//96
f 115//115 116//116 117//117 118//118
f 119//119 120//120 121//121
f 122//122 115//115 99//99
f 123//123 102//102 124//124 125//125
f 126//126 127//127 128//128 129//129
f 130//130 131//11 132//11 127//127
f 130//130 133//131 134//132 135//133
f 136//134 137//135 138//136 139//137
f 139//137 140//138 141//139 142//140
f 143//141 144//11 145//142 146//143
f 147//144 143//141 146//143 148//145
f 149//146 150//147 151//148 148//145 146//143 145//142 152//149 153//150
f 154//151 155//152 156//153 157//154
f 158//155 159//156 120//120 160//157
f 161//158 162//159 163//160 158//155
f 164//161 165//162 156//153 155//152
f 166//163 167//164 164//161 168//165
f 169//166 170//167 171//168 172//169
f 173//170 174//171 175//172 176//173
f 169//166 172//169 177//174 178//175 174//171 173//170 179//176 180//177
f 181//178 182//179 183//180 112//112
f 184//181 185//182 114//114 113//113
f 186//183 187//184 182//179 188//185
f 189//186 190//187 185//182 184//181
f 191//188 192//189 186//183 193//190
f 194//191 188//185 195//192 196//193
f 197//194 198//195 199//196 200//197
f 201//198 202//199 203//200 204//201 197//194 200//197 205//202
f 204//201 196//193 198//195 197//194
f 193//190 186//183 188//185 194//191
f 191//188 206//203 207//204 192//189
f 191//188 201//198 205//202 208//205 206//203
f 186//183 192//189 209//206 187//184
f 210//207 211//208 185//182 190//187
f 211//208 181//178 112//112 111//111
f 212//209 209//206 213//210 214//211
f 174//171 178//175 166//163 175//172
f 215//212 170//167 169//166 180//177
f 170//167 216//213 165//162 171//168
f 162//159 215//212 217//214 163//160
f 218//215 216//213 162//159 161//158
f 219//216 220//217 168//165 221//218
f 222//219 219//216 221//218 107//107
f 154//151 107//107 221//218 155//152
f 135//133 152//149 145//142 144//11
f 149//146 223//220 142//140 150//147
f 147//144 141//139 140//138 224//221
f 133//131 126//126 137//135 136//134
f 130//130 127//127 126//126 133//131
f 131//11 225//222 124//124 132//11
f 226//223 138//136 227//224 228//225
f 123//123 125//125 226//223 228//225
f 129//129 115//115 122//122
f 100//100 160//157 120//120 119//119
f 115//115 129//129 128//128 116//116
f 95//95 229//226 214//211 113//113
f 83//83 183//180 230//227 84//84
f 84//84 230//227 106//106 105//105
f 87//87 157//154 104//104
f 104//104 157//154 117//117 116//116
f 228//225 227//224 92//92 91//91
f 229//226 95//95 98//98 231//228
f 78//78 232//229 233//230 122//122
f 88//88 103//103 234//231 89//89
f 84//84 105//105 235//232 85//85
f 96//96 110//110 61//61 97//97
f 69//69 98//98 97//97 70//70
f 236//233 237//234 75//75 74//74
f 237//234 72//72 71//71 75//75
f 238//235 239//236 69//69 68//68
f 67//67 238//235 5//5 2//2
f 97//97 61//61 64//64 70//70
f 56//56 63//63 62//62 86//86
f 70//70 64//64 59//59 58//58
f 54//54 240//237 55//55 52//52
f 57//57 41//41 40//40 52//52
f 53//53 51//51 29//29 241//238
f 242//239 243//240 48//48 47//47
f 37//37 46//46 45//45 38//38
f 43//43 243//240 89//89 234//231
f 51//51 53//53 40//40 39//39
f 37//37 11//11 244//241 35//35
f 245//242 34//34 33//33 246//243
f 33//33 26//26 77//77 246//243
f 31//31 76//76 247//244 32//32
f 24//24 23//23 27//27 36//36
f 16//16 28//28 18//18 17//17
f 94//94 248//245 44//44 249//246
f 11//11 10//10 250//247 244//241
f 165//162 164//161 167//164 171//168
f 2//2 5//5 8//8 3//3
f 247//244 1//1 4//4 32//32
f 8//8 7//7 251//248 252//249
f 241//238 252//249 54//54 53//53
f 253//250 13//13 16//16 17//17
f 248//245 15//15 14//14 44//44
f 22//22 19//19 18//18 23//23
f 15//15 25//25 28//28 16//16
f 30//30 245//242 246//243 31//31
f 36//36 35//35 244//241 24//24
f 12//12 38//38 13//13 253//250
f 42//42 242//239 47//47 39//39
f 44//44 43//43 234//231 249//246
f 46//46 49//49 48//48 45//45
f 50//50 49//49 245//242 30//30
f 242//239 42//42 254//251 90//90
f 252//249 251//248 240//237 54//54
f 57//57 56//56 86//86 85//85
f 251//248 7//7 60//60
f 64//64 63//63 65//65 59//59
f 60//60 65//65 55//55 240//237
f 71//71 66//66 1//1 247//244
f 68//68 58//58 60//60 6//6
f 66//66 73//73 82//82 67//67
f 74//74 77//77 26//26 25//25
f 232//229 78//78 72//72 237//234
f 81//81 231//228 239//236 82//82
f 109//109 83//83 86//86 62//62
f 108//108 87//87 90//90 254//251
f 255//252 91//91 94//94 249//246
f 92//92 233//230 232//229 93//93
f 100//100 119//119 81//81 80//80
f 103//103 102//102 123//123 255//252
f 88//88 104//104 101//101
f 108//108 107//107 154//151
f 230//227 212//209 106//106
f 96//96 114//114 111//111 110//110
f 121//121 120//120 222//219 106//106
f 119//119 121//121 229//226
f 99//99 115//115 118//118
f 256//253 129//129 122//122 233//230
f 127//127 132//11 101//101 128//128
f 137//135 126//126 129//129 256//253
f 225//222 131//11 144//11 143//141
f 139//137 138//136 226//223 140//138
f 136//134 139//137 142//140 223//220
f 224//221 225//222 143//141 147//144
f 151//148 141//139 147//144 148//145
f 223//220 149//146 153//150 134//132
f 157//154 156//153 218//215 117//117
f 161//158 158//155 160//157 118//118
f 158//155 163//160 257//254 159//156
f 168//165 164//161 155//152 221//218
f 175//172 166//163 168//165 220//217
f 175//172 220//217 257//254 176//173
f 179//176 173//170 176//173 217//214
f 171//168 167//164 177//174 172//169
f 182//179 187//184 230//227 183//180
f 184//181 113//113 214//211 213//210
f 188//185 182//179 181//178 195//192
f 207//204 189//186 184//181 213//210
f 208//205 199//196 190//187 189//186
f 196//193 195//192 210//207 198//195
f 200//197 199//196 208//205 205//202
f 194//191 203//200 202//199 193//190
f 194//191 196//193 204//201 203//200
f 201//198 191//188 193//190 202//199
f 206//203 208//205 189//186 207//204
f 190//187 199//196 198//195 210//207
f 192//189 207//204 213//210 209//206
f 195//192 181//178 211//208 210//207
f 185//182 211//208 111//111 114//114
f 230//227 187//184 209//206 212//209
f 178//175 177//174 167//164 166//163
f 180//177 179//176 217//214 215//212
f 176//173 257//254 163//160 217//214
f 216//213 170//167 215//212 162//159
f 165//162 216//213 218//215 156//153
f 159//156 257//254 220//217 219//216
f 159//156 219//216 222//219 120//120
f 117//117 218//215 161//158 118//118
f 134//132 153//150 152//149 135//133
f 150//147 142//140 141//139 151//148
f 135//133 144//11 131//11 130//130
f 134//132 133//131 136//134 223//220
f 140//138 226//223 125//125 224//221
f 125//125 124//124 225//222 224//221
f 138//136 137//135 256//253 227//224
f 101//101 132//11 124//124 102//102
f 227//224 256//253 233//230 92//92
f 99//99 118//118 160//157 100//100
f 229//226 121//121 214//211
f 121//121 106//106 212//209 214//211
f 109//109 112//112 183//180 83//83
f 106//106 222//219 107//107
f 108//108 154//151 157//154 87//87
f 101//101 104//104 116//116 128//128
f 255//252 123//123 228//225 91//91
f 119//119 229//226 231//228 81//81
f 79//79 78//78 122//122 99//99
f 103//103 255//252 249//246 234//231
f 105//105 108//108 254//251 235//232
f 110//110 109//109 62//62 61//61
f 239//236 231//228 98//98 69//69
f 93//93 232//229 237//234 236//233
f 236//233 74//74 25//25 15//15 248//245
f 67//67 82//82 239//236 238//235
f 238//235 68//68 6//6 5//5
f 75//75 71//71 247//244 76//76
f 55//55 65//65 63//63 56//56
f 60//60 240//237 251//248
f 60//60 7//7 6//6
f 85//85 235//232 41//41 57//57
f 235//232 254//251 42//42 41//41
f 90//90 89//89 243//240 242//239
f 245//242 49//49 46//46 34//34
f 45//45 48//48 243//240 43//43
f 38//38 45//45 14//14 13//13
f 39//39 47//47 50//50 51//51
f 258//255 9//9 12//12 253//250
f 24//24 244//241 250//247 21//21
f 31//31 246//243 77//77 76//76
f 27//27 26//26 33//33 36//36
f 23//23 18//18 28//28 27//27
f 93//93 236//233 248//245 94//94
f 258//255 253//250 17//17 20//20
f 258//255 20//20 19//19 22//22 21//21 250//247 10//10 9//9
f 8//8 252//249 241//238 3//3
f 32//32 4//4 3//3 241//238 29//29
